# xmcd
#
# Track frame offsets: 
#        150
#        11007
#        21763
#        33500
#        46194
#        59200
#        71062
#        85697
#        97420
#        108690
#        119036
#        132036
#        143578
#        153865
#        168551
#        179306
#        191586
#        202601
#        216004
#        229173
#        240271
#        250321
#        261799
#
# Disc length: 3613 seconds
#
# Revision: 0
# Processed by: cddbd v1.5.2PL0 Copyright (c) Steve Scherf et al.
# Submitted via: ExactAudioCopy v0.99pb4
#
DISCID=450e1b17
DTITLE=Darrow Fletcher - The Pain Gets A Little Deeper
DYEAR=1971
DGENRE=Soul
TTITLE0=The Pain Gets A Little Deeper
TTITLE1=What Good Am I Without You - Jacklyn 67
TTITLE2=Changing By The Minute - UNI 70
TTITLE3=I Think I'm Gonna Write A Song
TTITLE4=My Judgement Day
TTITLE5=Sitting There That Night
TTITLE6=When Love Calls
TTITLE7=Infatuation
TTITLE8=My Young Misery
TTITLE9=Gotta Draw The Line
TTITLE10=I Like The Way I Feel
TTITLE11=Gonna Keep Loving You
TTITLE12=What Is This
TTITLE13=Now Is The Time For Love Pt 1
TTITLE14=Now Is The Time For Love Pt 2
TTITLE15=Those Hanging Heartaches
TTITLE16=Little Girl
TTITLE17=Dolly Baby
TTITLE18=The Way Of A Man
TTITLE19=What Have I Got Now - Jacklyn 66
TTITLE20=I've Gotta Know Why
TTITLE21=That Certain Little Something
TTITLE22=We Can't Go On This Way
EXTD=
EXTT0=
EXTT1=
EXTT2=
EXTT3=
EXTT4=
EXTT5=
EXTT6=
EXTT7=
EXTT8=
EXTT9=
EXTT10=
EXTT11=
EXTT12=
EXTT13=
EXTT14=
EXTT15=
EXTT16=
EXTT17=
EXTT18=
EXTT19=
EXTT20=
EXTT21=
EXTT22=
PLAYORDER=
